<?xml version="1.0" encoding="UTF-8" standalone="no"?>
<!DOCTYPE svg PUBLIC "-//W3C//DTD SVG 1.1//EN" "http://www.w3.org/Graphics/SVG/1.1/DTD/svg11.dtd">
<svg width="290px" height="110px" version="1.1" xmlns="http://www.w3.org/2000/svg" xmlns:xlink="http://www.w3.org/1999/xlink" xml:space="preserve" xmlns:serif="http://www.serif.com/" style="fill-rule:evenodd;clip-rule:evenodd;stroke-linejoin:round;stroke-miterlimit:1.41421;">
    <g id="Artwork">
        <g>
            <circle cx="249.773" cy="40.998" r="5.687" style="fill:rgb(255,69,0);"/>
            <path d="M168.549,65.247C171.339,65.247 172.948,63.155 172.841,61.116C172.788,60.043 172.68,59.345 172.573,58.809C170.856,51.406 164.848,45.933 157.712,45.933C149.236,45.933 142.369,53.605 142.369,63.047C142.369,72.489 149.236,80.161 157.712,80.161C163.024,80.161 166.833,78.23 169.569,75.172C170.91,73.67 170.642,71.363 169.032,70.236C167.691,69.324 166.028,69.646 164.794,70.665C163.614,71.685 161.361,73.723 157.712,73.723C153.421,73.723 149.773,70.021 148.968,65.139L168.549,65.139L168.549,65.247ZM157.659,52.425C161.521,52.425 164.848,55.429 166.082,59.56L149.236,59.56C150.47,55.376 153.796,52.425 157.659,52.425Z" style="fill:rgb(34,34,34);fill-rule:nonzero;"/>
            <path d="M142.691,49.313C142.691,47.704 141.511,46.416 140.009,46.148C135.341,45.451 130.942,47.167 128.421,50.333L128.421,49.903C128.421,47.918 126.811,46.685 125.202,46.685C123.431,46.685 121.983,48.133 121.983,49.903L121.983,76.191C121.983,77.908 123.27,79.41 124.987,79.517C126.865,79.624 128.421,78.176 128.421,76.298L128.421,62.725C128.421,56.717 132.927,51.781 139.15,52.479C139.365,52.479 139.579,52.479 139.794,52.479C141.403,52.371 142.691,50.976 142.691,49.313Z" style="fill:rgb(34,34,34);fill-rule:nonzero;"/>
            <path d="M252.991,52.747C252.991,50.976 251.543,49.528 249.773,49.528C248.002,49.528 246.554,50.976 246.554,52.747C246.554,52.854 246.554,75.279 246.554,76.298C246.554,78.069 248.002,79.517 249.773,79.517C251.543,79.517 252.991,78.069 252.991,76.298C252.991,75.333 252.991,52.908 252.991,52.747Z" style="fill:rgb(34,34,34);fill-rule:nonzero;"/>
            <path d="M205.137,34.936C205.137,33.165 203.689,31.717 201.918,31.717C200.148,31.717 198.7,33.165 198.7,34.936L198.7,49.26C196.5,47.06 193.764,45.987 190.491,45.987C182.015,45.987 175.148,53.659 175.148,63.101C175.148,72.543 182.015,80.215 190.491,80.215C193.764,80.215 196.554,79.088 198.753,76.888C199.021,78.391 200.363,79.517 201.918,79.517C203.689,79.517 205.137,78.069 205.137,76.298L205.137,34.936ZM190.545,73.83C185.609,73.83 181.639,69.056 181.639,63.101C181.639,57.2 185.609,52.371 190.545,52.371C195.481,52.371 199.451,57.146 199.451,63.101C199.451,69.056 195.427,73.83 190.545,73.83Z" style="fill:rgb(34,34,34);fill-rule:nonzero;"/>
            <path d="M238.721,34.936C238.721,33.165 237.273,31.717 235.502,31.717C233.732,31.717 232.283,33.165 232.283,34.936L232.283,49.26C230.084,47.06 227.348,45.987 224.075,45.987C215.599,45.987 208.732,53.659 208.732,63.101C208.732,72.543 215.599,80.215 224.075,80.215C227.348,80.215 230.137,79.088 232.337,76.888C232.605,78.391 233.946,79.517 235.502,79.517C237.273,79.517 238.721,78.069 238.721,76.298L238.721,34.936ZM224.075,73.83C219.139,73.83 215.17,69.056 215.17,63.101C215.17,57.2 219.139,52.371 224.075,52.371C229.011,52.371 232.981,57.146 232.981,63.101C232.981,69.056 229.011,73.83 224.075,73.83Z" style="fill:rgb(34,34,34);fill-rule:nonzero;"/>
            <path d="M269.3,76.352L269.3,52.425L272.144,52.425C273.646,52.425 274.987,51.298 275.094,49.742C275.202,48.079 273.861,46.685 272.251,46.685L269.3,46.685L269.3,42.178C269.3,40.461 268.013,38.959 266.296,38.852C264.418,38.745 262.863,40.193 262.863,42.071L262.863,46.738L260.18,46.738C258.678,46.738 257.337,47.865 257.23,49.421C257.122,51.084 258.464,52.479 260.073,52.479L262.809,52.479L262.809,76.406C262.809,78.176 264.258,79.624 266.028,79.624C267.906,79.517 269.3,78.122 269.3,76.352Z" style="fill:rgb(34,34,34);fill-rule:nonzero;"/>
        </g>
        <g>
            <circle cx="59" cy="55" r="44.957" style="fill:rgb(255,69,0);"/>
            <path d="M88.989,55C88.989,51.352 86.039,48.455 82.444,48.455C80.674,48.455 79.064,49.152 77.884,50.279C73.378,47.06 67.208,44.968 60.341,44.7L63.345,30.644L73.109,32.736C73.217,35.204 75.255,37.189 77.777,37.189C80.352,37.189 82.444,35.097 82.444,32.521C82.444,29.946 80.352,27.854 77.777,27.854C75.953,27.854 74.343,28.927 73.592,30.483L62.702,28.176C62.38,28.122 62.058,28.176 61.843,28.337C61.575,28.498 61.414,28.766 61.361,29.088L58.034,44.753C51.06,44.968 44.783,47.06 40.223,50.333C39.043,49.206 37.433,48.509 35.663,48.509C32.015,48.509 29.118,51.459 29.118,55.054C29.118,57.736 30.727,59.989 32.981,61.009C32.873,61.652 32.82,62.296 32.82,62.994C32.82,73.079 44.569,81.288 59.054,81.288C73.539,81.288 85.288,73.133 85.288,62.994C85.288,62.35 85.234,61.652 85.127,61.009C87.38,59.989 88.989,57.682 88.989,55ZM44.032,59.667C44.032,57.092 46.124,55 48.7,55C51.275,55 53.367,57.092 53.367,59.667C53.367,62.242 51.275,64.335 48.7,64.335C46.124,64.388 44.032,62.242 44.032,59.667ZM70.159,72.06C66.94,75.279 60.824,75.494 59.054,75.494C57.23,75.494 51.114,75.225 47.948,72.06C47.466,71.577 47.466,70.826 47.948,70.343C48.431,69.861 49.182,69.861 49.665,70.343C51.704,72.382 55.996,73.079 59.054,73.079C62.112,73.079 66.457,72.382 68.442,70.343C68.925,69.861 69.676,69.861 70.159,70.343C70.588,70.826 70.588,71.577 70.159,72.06ZM69.3,64.388C66.725,64.388 64.633,62.296 64.633,59.721C64.633,57.146 66.725,55.054 69.3,55.054C71.876,55.054 73.968,57.146 73.968,59.721C73.968,62.242 71.876,64.388 69.3,64.388Z" style="fill:white;fill-rule:nonzero;"/>
        </g>
    </g>
</svg>
